<svg width="53" height="52" viewBox="0 0 53 52" fill="none" xmlns="http://www.w3.org/2000/svg">
<path fill-rule="evenodd" clip-rule="evenodd" d="M53 26C53 40.3585 41.1346 52 26.5 52C11.8654 52 0 40.3585 0 26C0 11.6415 11.8654 0 26.5 0C41.1346 0 53 11.6415 53 26ZM27.4496 19.1945C24.8725 20.2453 19.7204 22.4228 11.9957 25.7248C10.7413 26.2145 10.0832 26.6933 10.0236 27.1613C9.92204 27.9543 10.9335 28.2663 12.307 28.6888C12.4947 28.7473 12.6891 28.8058 12.8878 28.8708C14.2415 29.302 16.0612 29.8068 17.0064 29.8263C17.8654 29.8437 18.8238 29.497 19.8816 28.7863C27.0985 24.0045 30.8239 21.5887 31.058 21.5367C31.2236 21.4998 31.4533 21.4522 31.6079 21.5887C31.7625 21.723 31.747 21.9787 31.7315 22.048C31.63 22.4662 27.6682 26.0823 25.6145 27.9543C24.974 28.5372 24.5213 28.951 24.4286 29.0463C24.221 29.2565 24.009 29.458 23.8058 29.6508C22.5471 30.8382 21.6063 31.7308 23.8588 33.1868C24.9409 33.8867 25.8066 34.4652 26.67 35.0415C27.613 35.672 28.5537 36.3003 29.7727 37.0847C30.0819 37.284 30.3778 37.4898 30.6671 37.6913C31.7647 38.4605 32.7518 39.1495 33.9708 39.0412C34.6775 38.9762 35.4106 38.324 35.7816 36.3762C36.6583 31.7698 38.3853 21.7945 38.785 17.6822C38.8093 17.3407 38.7945 16.9977 38.7408 16.6595C38.7087 16.3864 38.5731 16.135 38.361 15.9553C38.0452 15.7018 37.5549 15.6477 37.3341 15.652C36.3381 15.6693 34.81 16.1915 27.4496 19.1945Z" fill="#73B3FF"/>
</svg>
