<svg width="52" height="52" viewBox="0 0 52 52" fill="none" xmlns="http://www.w3.org/2000/svg">
<path d="M48.1111 12.0247C40.3326 -0.000397506 24.4513 -3.57542 12.1353 3.89963C0.143298 11.3747 -3.74598 27.6248 4.03258 39.6499L4.6808 40.6249L2.08794 50.375L11.8111 47.775L12.7835 48.425C16.9969 50.7 21.5344 52 26.0718 52C30.9335 52 35.7951 50.7 40.0084 48.1C52.0004 40.2999 55.5656 24.3748 48.1111 12.0247ZM41.3049 37.0499C40.0084 38.9999 38.3879 40.2999 36.1192 40.6249C34.8227 40.6249 33.2022 41.2749 26.7201 38.6749C21.2102 36.0749 16.6727 31.8498 13.4317 26.9748C11.487 24.6998 10.5147 21.7748 10.1906 18.8497C10.1906 16.2497 11.1629 13.9747 12.7835 12.3497C13.4317 11.6997 14.0799 11.3747 14.7281 11.3747H16.3486C16.9969 11.3747 17.6451 11.3747 17.9692 12.6747C18.6174 14.2997 20.2379 18.1997 20.2379 18.5247C20.562 18.8497 20.562 19.4998 20.2379 19.8248C20.562 20.4748 20.2379 21.1248 19.9138 21.4498C19.5897 21.7748 19.2656 22.4248 18.9415 22.7498C18.2933 23.0748 17.9692 23.7248 18.2933 24.3748C19.5897 26.3248 21.2102 28.2748 22.8308 29.8998C24.7754 31.5248 26.7201 32.8249 28.9888 33.7999C29.637 34.1249 30.2852 34.1249 30.6093 33.4749C30.9335 32.8249 32.554 31.1998 33.2022 30.5498C33.8504 29.8998 34.1745 29.8998 34.8227 30.2248L40.0084 32.8249C40.6567 33.1499 41.3049 33.4749 41.629 33.7999C41.9531 34.7749 41.9531 36.0749 41.3049 37.0499Z" fill="#73B258"/>
</svg>
