<svg width="53" height="53" viewBox="0 0 53 53" fill="none" xmlns="http://www.w3.org/2000/svg">
<path d="M34.7 27.5C34.7 28.924 34.2777 30.3161 33.4866 31.5001C32.6954 32.6841 31.5709 33.607 30.2553 34.1519C28.9397 34.6969 27.492 34.8395 26.0954 34.5617C24.6987 34.2838 23.4158 33.5981 22.4088 32.5912C21.4019 31.5842 20.7162 30.3013 20.4383 28.9046C20.1605 27.508 20.3031 26.0603 20.8481 24.7447C21.393 23.4291 22.3159 22.3046 23.4999 21.5134C24.6839 20.7223 26.076 20.3 27.5 20.3C29.4077 20.3059 31.2356 21.0664 32.5846 22.4154C33.9336 23.7644 34.6941 25.5923 34.7 27.5ZM50 17.6V37.4C50 40.7417 48.6725 43.9466 46.3095 46.3095C43.9466 48.6725 40.7417 50 37.4 50H17.6C14.2583 50 11.0534 48.6725 8.69045 46.3095C6.3275 43.9466 5 40.7417 5 37.4V17.6C5 14.2583 6.3275 11.0534 8.69045 8.69045C11.0534 6.3275 14.2583 5 17.6 5H37.4C40.7417 5 43.9466 6.3275 46.3095 8.69045C48.6725 11.0534 50 14.2583 50 17.6ZM38.3 27.5C38.3 25.364 37.6666 23.2759 36.4799 21.4998C35.2932 19.7238 33.6064 18.3395 31.633 17.5221C29.6595 16.7047 27.488 16.4908 25.393 16.9075C23.298 17.3242 21.3737 18.3528 19.8632 19.8632C18.3528 21.3737 17.3242 23.298 16.9075 25.393C16.4908 27.488 16.7047 29.6595 17.5221 31.633C18.3395 33.6064 19.7238 35.2932 21.4998 36.4799C23.2759 37.6666 25.364 38.3 27.5 38.3C30.3643 38.3 33.1114 37.1621 35.1368 35.1368C37.1621 33.1114 38.3 30.3643 38.3 27.5ZM41.9 15.8C41.9 15.266 41.7416 14.744 41.445 14.3C41.1483 13.8559 40.7266 13.5099 40.2332 13.3055C39.7399 13.1012 39.197 13.0477 38.6733 13.1519C38.1495 13.2561 37.6684 13.5132 37.2908 13.8908C36.9132 14.2684 36.6561 14.7495 36.5519 15.2733C36.4477 15.797 36.5012 16.3399 36.7055 16.8332C36.9099 17.3266 37.2559 17.7483 37.7 18.045C38.144 18.3416 38.666 18.5 39.2 18.5C39.9161 18.5 40.6028 18.2155 41.1092 17.7092C41.6155 17.2028 41.9 16.5161 41.9 15.8Z" fill="white"/>
</svg>
