<svg width="45" height="45" viewBox="0 0 45 45" fill="none" xmlns="http://www.w3.org/2000/svg">
<path d="M29.7 22.5C29.7 23.924 29.2777 25.3161 28.4866 26.5001C27.6954 27.6841 26.5709 28.607 25.2553 29.1519C23.9397 29.6969 22.492 29.8395 21.0954 29.5617C19.6987 29.2838 18.4158 28.5981 17.4088 27.5912C16.4019 26.5842 15.7162 25.3013 15.4383 23.9046C15.1605 22.508 15.3031 21.0603 15.8481 19.7447C16.393 18.4291 17.3159 17.3046 18.4999 16.5134C19.6839 15.7223 21.076 15.3 22.5 15.3C24.4077 15.3059 26.2356 16.0664 27.5846 17.4154C28.9336 18.7644 29.6941 20.5923 29.7 22.5ZM45 12.6V32.4C45 35.7417 43.6725 38.9466 41.3095 41.3095C38.9466 43.6725 35.7417 45 32.4 45H12.6C9.25827 45 6.05341 43.6725 3.69045 41.3095C1.3275 38.9466 0 35.7417 0 32.4V12.6C0 9.25827 1.3275 6.05341 3.69045 3.69045C6.05341 1.3275 9.25827 0 12.6 0H32.4C35.7417 0 38.9466 1.3275 41.3095 3.69045C43.6725 6.05341 45 9.25827 45 12.6ZM33.3 22.5C33.3 20.364 32.6666 18.2759 31.4799 16.4998C30.2932 14.7238 28.6064 13.3395 26.633 12.5221C24.6595 11.7047 22.488 11.4908 20.393 11.9075C18.298 12.3242 16.3737 13.3528 14.8632 14.8632C13.3528 16.3737 12.3242 18.298 11.9075 20.393C11.4908 22.488 11.7047 24.6595 12.5221 26.633C13.3395 28.6064 14.7238 30.2932 16.4998 31.4799C18.2759 32.6666 20.364 33.3 22.5 33.3C25.3643 33.3 28.1114 32.1621 30.1368 30.1368C32.1621 28.1114 33.3 25.3643 33.3 22.5ZM36.9 10.8C36.9 10.266 36.7416 9.74397 36.445 9.29996C36.1483 8.85595 35.7266 8.50988 35.2332 8.30552C34.7399 8.10117 34.197 8.0477 33.6733 8.15188C33.1495 8.25606 32.6684 8.51321 32.2908 8.89081C31.9132 9.26841 31.6561 9.74951 31.5519 10.2733C31.4477 10.797 31.5012 11.3399 31.7055 11.8332C31.9099 12.3266 32.2559 12.7483 32.7 13.045C33.144 13.3416 33.666 13.5 34.2 13.5C34.9161 13.5 35.6028 13.2155 36.1092 12.7092C36.6155 12.2028 36.9 11.5161 36.9 10.8Z" fill="white"/>
</svg>
